# AST/ASF file generated using VICON BodyLanguage
# -----------------------------------------------
:version 1.10
:name VICON
:units
  mass 1.0
  length 0.45
  angle deg
:documentation
   .ast/.asf automatically generated from VICON data using
   VICON BodyBuilder and BodyLanguage model FoxedUp or BRILLIANT.MOD
:root
   order TX TY TZ RX RY RZ
   axis XYZ
   position 0 0 0  
   orientation 0 0 0 
:bonedata
  begin
     id 1 
     name lhipjoint
     direction 0.63403 -0.759788 0.143974 
     length 2.51904 
     axis 0 0 0  XYZ
  end
  begin
     id 2 
     name lfemur
     direction 0.34202 -0.939693 0  
     length 7.42313  
     axis 0 0 20  XYZ
    dof rx ry rz
    limits (-160.0 20.0)
           (-70.0 70.0)
           (-60.0 70.0)
  end
  begin
     id 3 
     name ltibia
     direction 0.34202 -0.939693 0   
     length 8.10141   
     axis 0 0 20   XYZ
    dof rx
    limits (-10.0 170.0)
  end
  begin
     id 4 
     name lfoot
     direction 0.0927455 -0.254816 0.962532   
     length 2.14078   
     axis -90 7.62852e-016 20   XYZ
    dof rx rz
    limits (-45.0 90.0)
           (-70.0 20.0)
  end
  begin
     id 5 
     name ltoes
     direction 1.53556e-011 -4.21949e-011 1   
     length 1.07182   
     axis -90 7.62852e-016 20   XYZ
    dof rx
    limits (-90.0 20.0)
  end
  begin
     id 6 
     name rhipjoint
     direction -0.659892 -0.738223 0.139888   
     length 2.59263  
     axis 0 0 0  XYZ 
  end
  begin
     id 7 
     name rfemur
     direction -0.34202 -0.939693 0   
     length 7.58575   
     axis 0 0 -20   XYZ
    dof rx ry rz
    limits (-160.0 20.0)
           (-70.0 70.0)
           (-70.0 60.0)
  end
  begin
     id 8 
     name rtibia
     direction -0.34202 -0.939693 0   
     length 8.19358   
     axis 0 0 -20   XYZ
    dof rx
    limits (-10.0 170.0)
 end
 begin
     id 9 
     name rfoot
     direction -0.0856543 -0.235333 0.968133   
     length 2.13415  
     axis -90 -7.62852e-016 -20   XYZ
    dof rx rz
    limits (-45.0 90.0)
           (-20.0 70.0)
  end
  begin
     id 10 
     name rtoes
     direction -1.53551e-011 -4.21811e-011 1   
     length 1.07055   
     axis -90 -7.62852e-016 -20   XYZ
    dof rx
    limits (-90.0 20.0)
  end
  begin
     id 11 
     name lowerback
     direction 0.025219 0.998394 -0.0507326   
     length 1.91844   
     axis 0 0 0   XYZ
    dof rx ry rz
    limits (-20.0 45.0)
           (-30.0 30.0)
           (-30.0 30.0)
  end
  begin
     id 12 
     name upperback
     direction 0.0213103 0.99967 -0.0143101   
     length 1.92246   
     axis 0 0 0   XYZ
    dof rx ry rz
    limits (-20.0 45.0)
           (-30.0 30.0)
           (-30.0 30.0)
  end
  begin
     id 13 
     name thorax
     direction 0.00920974 0.99991 0.00971518   
     length 1.92239   
     axis 0 0 0   XYZ
    dof rx ry rz
    limits (-20.0 45.0)
           (-30.0 30.0)
           (-30.0 30.0)
  end
  begin
     id 14 
     name lowerneck
     direction 0.0598257 0.997249 0.0437612   
     length 3.13679   
     axis 0 0 0   XYZ
    dof rx ry rz
    limits (-20.0 45.0)
           (-30.0 30.0)
           (-30.0 30.0)
  end
  begin
     id 15 
     name upperneck
     direction -0.035342 0.999338 0.00863891   
     length 3.16283   
     axis 0 0 0   XYZ
    dof rx ry rz
    limits (-20.0 45.0)
           (-30.0 30.0)
           (-30.0 30.0)
  end
  begin
     id 16
     name head
     direction 0.37144 0.811566 0.450991  
     length 1.2838  
     axis 0 0 0   XYZ
    dof rx ry rz
    limits (-20.0 45.0)
           (-30.0 30.0)
           (-30.0 30.0)
  end
  begin
     id 17 
     name lclavicle
     direction 0.961094 0.274654 -0.0293862  
     length 3.63466  
     axis 0 0 0   XYZ
    dof ry rz
    limits (-20.0 10.0)
           (0.0 20.0)
  end
  begin
     id 18 
     name lhumerus
     direction 1 -4.48963e-011 1.10303e-027   
     length 5.12842   
     axis 180 -30 -90   XYZ
    dof rx ry rz
    limits (-60.0 90.0)
           (-90.0 90.0)
           (-90.0 90.0)
  end
  begin
     id 19
     name lradius
     direction 1 -4.48968e-011 4.13199e-027   
     length 3.47396   
     axis 180 -30 -90   XYZ
    dof rx
    limits (-10.0 170.0)
  end
  begin
     id 20
     name lwrist
     direction 1 -4.48948e-011 9.12708e-027   
     length 1.73698   
     axis -6.84618e-015 90 90   XYZ
    dof ry
    limits (-180.0 0.0)
 end
  begin
     id 21 
     name lhand
     direction 1 -4.49057e-011 1.82749e-026   
     length 0.728607   
     axis -1.16502e-014 90 90   XYZ
    dof rx rz
    limits (-90.0 90.0)
           (-45.0 45.0)
  end
  begin
     id 22 
     name lfingers
     direction 1 -4.48912e-011 3.64949e-026   
     length 0.587422   
     axis -2.33008e-014 90 90   XYZ
    dof rx
    limits (0.0 90.0)
  end
  begin
     id 23
     name lthumb
     direction 0.707107 -6.34995e-011 0.707107   
     length 0.843424   
     axis -90 45 5.69224e-014   XYZ
    dof rx rz
    limits (-45.0 45.0)
           (-45.0 45.0)
  end
  begin
     id 24 
     name rclavicle
     direction -0.90514 0.421881 -0.0523369   
     length 3.57139  
     axis 0 0 0   XYZ 
    dof ry rz
    limits (-10.0 20.0)
           (-20.0 0.0)
  end
  begin
     id 25 
     name rhumerus
     direction -1 -4.48954e-011 -1.76662e-027  
     length 5.48477   
     axis 180 30 90   XYZ
    dof rx ry rz
    limits (-90.0 60.0)
           (-90.0 90.0)
           (-90.0 90.0)
  end
  begin
     id 26 
     name rradius
     direction -1 -4.48982e-011 1.26841e-027   
     length 3.47856   
     axis 180 30 90   XYZ
    dof rx
    limits (-10.0 170.0)
  end
  begin
     id 27 
     name rwrist
     direction -1 -4.49037e-011 9.13554e-027   
     length 1.73928   
     axis -6.84618e-015 -90 -90   XYZ
    dof ry
    limits (-180.0 0.0)
  end
  begin
     id 28
     name rhand
     direction -1 -4.48871e-011 1.82397e-026   
     length 0.709974   
     axis -1.16502e-014 -90 -90   XYZ
    dof rx rz
    limits (-90.0 90.0)
           (-45.0 45.0)
  end
  begin
     id 29
     name rfingers
     direction -1 -4.48994e-011 3.65258e-026   
     length 0.572399   
     axis -2.33008e-014 -90 -90   XYZ
    dof rx
    limits (0.0 90.0)
  end
  begin
     id 30
     name rthumb
     direction -0.707107 -6.34861e-011 0.707107   
     length 0.821855   
     axis -90 -45 -5.69224e-014   XYZ
    dof rx rz
    limits (-45.0 45.0)
           (-45.0 45.0)
  end
:hierarchy
  begin
    root lhipjoint rhipjoint lowerback
    lhipjoint lfemur
    lfemur ltibia
    ltibia lfoot
    lfoot ltoes
    rhipjoint rfemur
    rfemur rtibia
    rtibia rfoot
    rfoot rtoes
    lowerback upperback
    upperback thorax
    thorax lowerneck lclavicle rclavicle
    lowerneck upperneck
    upperneck head
    lclavicle lhumerus
    lhumerus lradius
    lradius lwrist
    lwrist lhand lthumb
    lhand lfingers
    rclavicle rhumerus
    rhumerus rradius
    rradius rwrist
    rwrist rhand rthumb
    rhand rfingers
  end

#!OML:ASF F:\VICON\USERDATA\INSTALL\Justin1\Justin1.ASF
:FULLY-SPECIFIED
:DEGREES
1
root -0.320217 18.2379 -3.14596 6.30688 -0.852393 -2.77001
lowerback -0.345144 -2.30893 1.55187
upperback -3.92163 -2.97059 2.85701
thorax -3.77154 -1.48322 2.16312
lowerneck -8.94052 -11.762 -9.52083
upperneck 16.1167 -14.9047 1.54207
head 7.24729 -7.62123 0.576266
rclavicle 6.05051e-015 -1.19271e-014
rhumerus -31.6575 -17.0334 -75.2167
rradius 24.853
rwrist 1.97842
rhand -21.7484 16.8502
rfingers 7.12502
rthumb 4.65172 -13.0787
lclavicle 6.05051e-015 -1.19271e-014
lhumerus -37.6223 21.3989 75.6484
lradius 31.288
lwrist -15.163
lhand -7.91243 28.2915
lfingers 7.12502
lthumb 17.9931 57.4792
rfemur -15.1732 9.13944 27.9447
rtibia 31.526
rfoot -17.7446 -16.8707
rtoes 26.6412
lfemur -12.0806 -10.8633 -18.0428
ltibia 27.4367
lfoot -17.7854 11.0028
ltoes 6.18275
2
root -0.318865 18.2375 -3.14387 6.40907 -0.864971 -2.72247
lowerback -0.430311 -2.29945 1.48671
upperback -3.97786 -2.96139 2.82126
thorax -3.78045 -1.47719 2.16018
lowerneck -8.94215 -11.7604 -9.50378
upperneck 16.1634 -14.9153 1.58812
head 7.26558 -7.62193 0.585255
rclavicle 1.13059e-014 1.59028e-015
rhumerus -31.6826 -17.2716 -75.1223
rradius 24.685
rwrist 2.15941
rhand -21.7018 17.0463
rfingers 7.12502
rthumb 4.69676 -12.8816
lclavicle 1.13059e-014 1.59028e-015
lhumerus -37.6096 21.1688 75.6578
lradius 31.4221
lwrist -15.0153
lhand -7.90364 28.2208
lfingers 7.12502
lthumb 18.0016 57.4077
rfemur -15.3 9.15209 27.8684
rtibia 31.5739
rfoot -17.7628 -16.852
rtoes 26.6522
lfemur -12.1764 -10.8201 -18.0894
ltibia 27.4328
lfoot -17.758 10.9882
ltoes 6.10657
3
root -0.318752 18.2383 -3.14136 6.57441 -0.961544 -2.79439
lowerback -0.576704 -2.24809 1.5116
upperback -4.04122 -2.89457 2.84368
thorax -3.76538 -1.44442 2.16294
lowerneck -8.94464 -11.7699 -9.46683
upperneck 16.1793 -14.9279 1.55141
head 7.26602 -7.629 0.566761
rclavicle 4.78077e-014 -1.66979e-014
rhumerus -31.65 -17.4739 -74.9832
rradius 24.4707
rwrist 2.3028
rhand -21.7116 16.9263
rfingers 7.12502
rthumb 4.68721 -13.0018
lclavicle 4.78077e-014 -1.66979e-014
lhumerus -37.549 20.8751 75.752
lradius 31.5194
lwrist -14.8546
lhand -7.91796 28.0356
lfingers 7.12502
lthumb 17.9878 57.2238
rfemur -15.4494 9.27552 27.9113
rtibia 31.5295
rfoot -17.6489 -16.9064
rtoes 26.3835
lfemur -12.3673 -10.7759 -17.9881
ltibia 27.4785
lfoot -17.8232 10.9825
ltoes 6.30803
4
root -0.317481 18.2395 -3.13681 6.66687 -1.03459 -2.83853
lowerback -0.735877 -2.21345 1.52587
upperback -4.03609 -2.85312 2.85283
thorax -3.67134 -1.42437 2.15574
lowerneck -9.03024 -11.7692 -9.43339
upperneck 16.2016 -14.9229 1.54554
head 7.28452 -7.62388 0.554835
rclavicle 2.72087e-015 -1.59028e-014
rhumerus -31.5358 -17.6656 -74.8799
rradius 24.267
rwrist 2.524
rhand -21.7086 16.7197
rfingers 7.12502
rthumb 4.69019 -13.2083
lclavicle 2.72087e-015 -1.59028e-014
lhumerus -37.4402 20.586 75.873
lradius 31.6485
lwrist -14.7229
lhand -7.68791 28.231
lfingers 7.12502
lthumb 18.2091 57.3987
rfemur -15.5176 9.3475 27.9343
rtibia 31.505
rfoot -17.6059 -16.9365
rtoes 26.3269
lfemur -12.4295 -10.7828 -17.9422
ltibia 27.4849
lfoot -17.9252 11.0089
ltoes 6.45385
5
root -0.313349 18.2396 -3.13253 6.57397 -1.01052 -2.87837
lowerback -0.69994 -2.2354 1.5463
upperback -3.98285 -2.88173 2.88066
thorax -3.63528 -1.43889 2.17354
lowerneck -9.11431 -11.7629 -9.46842
upperneck 16.1906 -14.9002 1.55193
head 7.29746 -7.61294 0.559249
rclavicle -8.44835e-015 -1.98785e-014
rhumerus -31.5147 -17.5803 -74.8442
rradius 24.2854
rwrist 2.59051
rhand -21.671 16.5458
rfingers 7.12502
rthumb 4.72644 -13.3815
lclavicle -8.44835e-015 -1.98785e-014
lhumerus -37.3765 20.598 75.8917
lradius 31.7372
lwrist -14.7093
lhand -7.53288 28.4603
lfingers 7.12502
lthumb 18.3583 57.614
rfemur -15.3804 9.30258 27.9884
rtibia 31.4626
rfoot -17.5418 -16.9768
rtoes 26.0373
lfemur -12.2928 -10.7744 -17.9336
ltibia 27.4713
lfoot -17.9374 11.0081
ltoes 6.5427
6
root -0.307021 18.239 -3.12768 6.36873 -0.959129 -2.85095
lowerback -0.53504 -2.273 1.52599
upperback -3.92954 -2.92822 2.88781
thorax -3.67053 -1.46112 2.19929
lowerneck -9.1202 -11.744 -9.55093
upperneck 16.1678 -14.8681 1.59819
head 7.29958 -7.59817 0.588864
rclavicle 3.86388e-014 -2.38542e-014
rhumerus -31.5641 -17.3989 -74.8116
rradius 24.3615
rwrist 2.55463
rhand -21.5821 16.3757
rfingers 7.12502
rthumb 4.8123 -13.5497
lclavicle 3.86388e-014 -2.38542e-014
lhumerus -37.4103 20.5833 75.9302
lradius 31.8098
lwrist -14.5783
lhand -7.79182 28.1898
lfingers 7.12502
lthumb 18.1091 57.3668
rfemur -15.122 9.2138 27.98
rtibia 31.4327
rfoot -17.6884 -16.9329
rtoes 26.3463
lfemur -12.0221 -10.8492 -18.0311
ltibia 27.4142
lfoot -17.8777 11.0911
ltoes 6.55509
7
root -0.29928 18.2411 -3.12114 6.20668 -0.920641 -2.80836
lowerback -0.442364 -2.31949 1.50137
upperback -3.88014 -2.98894 2.89631
thorax -3.66832 -1.49045 2.22603
lowerneck -9.06729 -11.7088 -9.65037
upperneck 16.1071 -14.8284 1.71236
head 7.28536 -7.57587 0.647671
rclavicle 2.88859e-014 3.97569e-016
rhumerus -31.5485 -17.2132 -74.8026
rradius 24.3832
rwrist 2.47566
rhand -21.5208 16.1045
rfingers 7.12502
rthumb 4.87146 -13.8195
lclavicle 2.88859e-014 3.97569e-016
lhumerus -37.3743 20.6176 75.965
lradius 31.733
lwrist -14.522
lhand -7.92898 27.8748
lfingers 7.12502
lthumb 17.9772 57.0639
rfemur -14.9138 9.12295 27.9353
rtibia 31.4397
rfoot -17.7896 -16.8808
rtoes 26.5188
lfemur -11.7732 -10.9453 -18.1485
ltibia 27.3183
lfoot -17.8195 11.2108
ltoes 6.20985
8
root -0.292692 18.2425 -3.11442 6.17052 -0.905637 -2.78892
lowerback -0.494436 -2.34525 1.50625
upperback -3.8507 -3.02625 2.88227
thorax -3.6083 -1.50966 2.20615
lowerneck -9.1036 -11.6738 -9.62072
upperneck 16.118 -14.7905 1.7608
head 7.29427 -7.55164 0.660489
rclavicle -2.9445e-014 -1.03368e-014
rhumerus -31.5104 -17.1439 -74.8055
rradius 24.3482
rwrist 2.43724
rhand -21.4365 15.9328
rfingers 7.12502
rthumb 4.95293 -13.9893
lclavicle -2.9445e-014 -1.03368e-014
lhumerus -37.2936 20.6305 75.9472
lradius 31.6442
lwrist -14.5947
lhand -7.9075 27.7405
lfingers 7.12502
lthumb 17.9978 56.9278
rfemur -14.8526 9.0745 27.8955
rtibia 31.4702
rfoot -17.8041 -16.8366
rtoes 26.3345
lfemur -11.6504 -11.0281 -18.2078
ltibia 27.2236
lfoot -17.8074 11.2455
ltoes 6.21485
9
root -0.286603 18.2433 -3.11084 6.20405 -0.916034 -2.62783
lowerback -0.572071 -2.34356 1.39774
upperback -3.85872 -3.03036 2.79879
thorax -3.57116 -1.50986 2.17706
lowerneck -9.14918 -11.6782 -9.55003
upperneck 16.163 -14.8106 1.79189
head 7.31454 -7.55424 0.653824
rclavicle 8.48686e-014 -2.34566e-014
rhumerus -31.4963 -17.2389 -74.7851
rradius 24.2563
rwrist 2.50964
rhand -21.4664 16.0631
rfingers 7.12502
rthumb 4.92405 -13.8597
lclavicle 8.48686e-014 -2.34566e-014
lhumerus -37.2438 20.6173 75.8757
lradius 31.5704
lwrist -14.7331
lhand -8.07677 27.5443
lfingers 7.12502
lthumb 17.835 56.7464
rfemur -14.9088 9.04178 27.6942
rtibia 31.5082
rfoot -17.7621 -16.8013
rtoes 26.1912
lfemur -11.6338 -11.0502 -18.4043
ltibia 27.1642
lfoot -17.7784 11.2122
ltoes 6.54306
10
root -0.282043 18.2429 -3.1117 6.22663 -0.930462 -2.57501
lowerback -0.572603 -2.32204 1.36601
upperback -3.86954 -3.00248 2.77506
thorax -3.58234 -1.49529 2.16995
lowerneck -9.24721 -11.7132 -9.58772
upperneck 16.2644 -14.8569 1.85089
head 7.37495 -7.57233 0.662218
rclavicle 2.64881e-014 -1.66979e-014
rhumerus -31.4738 -17.4734 -74.6585
rradius 24.1454
rwrist 2.68451
rhand -21.4468 16.2339
rfingers 7.12502
rthumb 4.9429 -13.6884
lclavicle 2.64881e-014 -1.66979e-014
lhumerus -37.133 20.7258 75.8383
lradius 31.4304
lwrist -14.9328
lhand -8.12796 27.2936
lfingers 7.12502
lthumb 17.7857 56.5003
rfemur -14.9634 9.03552 27.6207
rtibia 31.5475
rfoot -17.7634 -16.8205
rtoes 25.997
lfemur -11.6542 -11.0801 -18.4607
ltibia 27.1449
lfoot -17.7553 11.1668
ltoes 6.89775
11
root -0.278988 18.2431 -3.11284 6.25178 -0.939429 -2.67862
lowerback -0.553683 -2.31601 1.44799
upperback -3.86923 -2.99108 2.82607
thorax -3.59474 -1.49128 2.17753
lowerneck -9.3916 -11.7193 -9.59583
upperneck 16.3458 -14.8513 1.84885
head 7.42674 -7.56807 0.651609
rclavicle 3.04513e-014 -3.18055e-014
rhumerus -31.4167 -17.4209 -74.6169
rradius 24.1078
rwrist 2.57478
rhand -21.4203 16.2466
rfingers 7.12502
rthumb 4.96855 -13.6751
lclavicle 3.04513e-014 -3.18055e-014
lhumerus -37.0308 20.8093 75.8245
lradius 31.2862
lwrist -15.0227
lhand -8.07392 26.9553
lfingers 7.12502
lthumb 17.8377 56.1572
rfemur -15.0105 9.11777 27.722
rtibia 31.5873
rfoot -17.7813 -16.8905
rtoes 26.093
lfemur -11.7066 -11.0778 -18.3383
ltibia 27.1599
lfoot -17.6969 11.1352
ltoes 6.99046
12
root -0.276791 18.2437 -3.11025 6.32462 -1.05619 -2.67717
lowerback -0.620618 -2.30164 1.37965
upperback -3.86714 -2.97413 2.86649
thorax -3.54956 -1.48024 2.25356
lowerneck -9.57593 -11.6952 -9.57031
upperneck 16.4495 -14.7969 1.79745
head 7.48345 -7.54227 0.62376
rclavicle -2.65129e-014 2.10712e-014
rhumerus -31.3181 -17.5057 -74.5331
rradius 24.0068
rwrist 2.70112
rhand -21.4246 16.2709
rfingers 7.12502
rthumb 4.96439 -13.651
lclavicle -2.65129e-014 2.10712e-014
lhumerus -37.0378 20.875 75.8269
lradius 31.3381
lwrist -15.0322
lhand -7.98059 26.8954
lfingers 7.12502
lthumb 17.9275 56.0891
rfemur -15.0922 9.22666 27.6866
rtibia 31.604
rfoot -17.6938 -16.8739
rtoes 25.9409
lfemur -11.7829 -10.9995 -18.3573
ltibia 27.1998
lfoot -17.6873 11.1835
ltoes 6.8812
13
root -0.274436 18.2434 -3.10693 6.45847 -1.18325 -2.68533
lowerback -0.763668 -2.27095 1.31761
upperback -3.9051 -2.936 2.92055
thorax -3.50336 -1.45865 2.33756
lowerneck -9.60621 -11.6611 -9.61308
upperneck 16.4518 -14.7402 1.80006
head 7.48996 -7.51694 0.635267
rclavicle 1.22253e-014 9.54166e-015
rhumerus -31.2931 -17.5266 -74.4203
rradius 23.968
rwrist 2.68988
rhand -21.4455 16.3767
rfingers 7.12502
rthumb 4.94418 -13.5456
lclavicle 1.22253e-014 9.54166e-015
lhumerus -37.1151 20.8536 75.8848
lradius 31.4424
lwrist -14.9722
lhand -7.86727 27.0045
lfingers 7.12502
lthumb 18.0365 56.1882
rfemur -15.2277 9.31153 27.6487
rtibia 31.6001
rfoot -17.6946 -16.8085
rtoes 26.0718
lfemur -11.9025 -10.8778 -18.3577
ltibia 27.2272
lfoot -17.7377 11.2331
ltoes 6.51791
14
root -0.26932 18.2423 -3.10215 6.40893 -1.16612 -2.71229
lowerback -0.760124 -2.29858 1.34354
upperback -3.88571 -2.97217 2.95137
thorax -3.48397 -1.4771 2.35514
lowerneck -9.55875 -11.6393 -9.60552
upperneck 16.3393 -14.7072 1.77247
head 7.4401 -7.50339 0.636292
rclavicle 1.97791e-014 -2.34566e-014
rhumerus -31.2789 -17.3736 -74.412
rradius 23.9882
rwrist 2.62395
rhand -21.5396 16.5032
rfingers 7.12502
rthumb 4.85334 -13.4212
lclavicle 1.97791e-014 -2.34566e-014
lhumerus -37.1675 20.9708 75.8623
lradius 31.4852
lwrist -15.0415
lhand -7.86026 27.1189
lfingers 7.12502
lthumb 18.0433 56.302
rfemur -15.1416 9.29724 27.6733
rtibia 31.596
rfoot -17.8345 -16.7724
rtoes 26.3419
lfemur -11.8235 -10.8871 -18.3627
ltibia 27.2411
lfoot -17.7944 11.2223
ltoes 6.3698
